<?xml version="1.0" encoding="utf-8"?>
<!-- Generator: Adobe Illustrator 27.5.0, SVG Export Plug-In . SVG Version: 6.00 Build 0)  -->
<svg version="1.1" id="Layer_1" xmlns="http://www.w3.org/2000/svg" xmlns:xlink="http://www.w3.org/1999/xlink" x="0px" y="0px"
	 viewBox="0 0 121.79 25.28" style="enable-background:new 0 0 121.79 25.28;" xml:space="preserve">
<style type="text/css">
	.st0{fill:#F7931E;}
</style>
<g>
	<g>
		<path class="st0" d="M7.43,14.96V1.65h4.93c1.48,0,2.63,0.29,3.42,0.88c0.8,0.59,1.2,1.43,1.2,2.51c0,0.67-0.21,1.26-0.62,1.76
			c-0.41,0.51-0.94,0.86-1.59,1.06v0.04c0.81,0.12,1.46,0.46,1.93,1.03c0.48,0.57,0.72,1.25,0.72,2.05c0,1.22-0.44,2.18-1.31,2.9
			c-0.87,0.71-2.06,1.07-3.57,1.07H7.43z M10.43,3.94V7.1h1.4c0.62,0,1.11-0.15,1.46-0.44c0.36-0.29,0.53-0.71,0.53-1.27
			c0-0.47-0.15-0.83-0.46-1.08c-0.31-0.25-0.77-0.38-1.39-0.38H10.43z M10.43,9.33v3.35h1.62c0.69,0,1.24-0.15,1.63-0.46
			c0.39-0.31,0.59-0.73,0.59-1.26c0-0.5-0.19-0.9-0.58-1.19c-0.39-0.29-0.93-0.44-1.62-0.44H10.43z"/>
		<path class="st0" d="M27.68,11.04h-6.2c0.04,0.61,0.26,1.1,0.64,1.46c0.38,0.36,0.88,0.54,1.5,0.54c0.38,0,0.72-0.09,1.03-0.28
			c0.31-0.19,0.59-0.46,0.84-0.83l2.15,1.22c-0.54,0.71-1.15,1.22-1.83,1.54c-0.67,0.32-1.42,0.49-2.25,0.49
			c-1.57,0-2.8-0.43-3.67-1.28c-0.88-0.85-1.32-2.04-1.32-3.56c0-1.58,0.46-2.83,1.37-3.75c0.92-0.92,2.04-1.38,3.38-1.38
			c1.39,0,2.46,0.41,3.21,1.23c0.76,0.82,1.14,2.06,1.14,3.71V11.04z M24.96,9.19c0-0.65-0.14-1.14-0.41-1.46
			c-0.27-0.33-0.64-0.49-1.11-0.49c-0.56,0-1.01,0.19-1.35,0.56c-0.34,0.37-0.55,0.83-0.63,1.39H24.96z"/>
		<path class="st0" d="M38,11.04h-6.2c0.04,0.61,0.26,1.1,0.64,1.46c0.38,0.36,0.88,0.54,1.5,0.54c0.38,0,0.72-0.09,1.03-0.28
			c0.31-0.19,0.59-0.46,0.84-0.83l2.15,1.22c-0.54,0.71-1.15,1.22-1.83,1.54c-0.67,0.32-1.42,0.49-2.25,0.49
			c-1.57,0-2.8-0.43-3.67-1.28c-0.88-0.85-1.32-2.04-1.32-3.56c0-1.58,0.46-2.83,1.37-3.75c0.92-0.92,2.04-1.38,3.38-1.38
			c1.39,0,2.46,0.41,3.21,1.23C37.62,7.28,38,8.52,38,10.17V11.04z M35.28,9.19c0-0.65-0.14-1.14-0.41-1.46
			c-0.27-0.33-0.64-0.49-1.11-0.49c-0.56,0-1.01,0.19-1.35,0.56c-0.34,0.37-0.55,0.83-0.63,1.39H35.28z"/>
		<path class="st0" d="M45.88,8.02c-0.2-0.07-0.41-0.12-0.6-0.15c-0.2-0.03-0.39-0.05-0.58-0.05c-0.58,0-1.05,0.23-1.42,0.7
			c-0.37,0.47-0.55,1.1-0.55,1.91v4.54h-2.93v-9.5h2.93v1.69h0.04c0.23-0.62,0.55-1.08,0.97-1.39c0.42-0.31,0.92-0.46,1.51-0.46
			c0.23,0,0.45,0.02,0.65,0.05c0.21,0.03,0.41,0.09,0.62,0.17L45.88,8.02z"/>
		<path class="st0" d="M47.98,14.96V1.65h4.93c1.48,0,2.63,0.29,3.42,0.88c0.8,0.59,1.2,1.43,1.2,2.51c0,0.67-0.21,1.26-0.62,1.76
			c-0.41,0.51-0.94,0.86-1.59,1.06v0.04c0.81,0.12,1.46,0.46,1.93,1.03c0.48,0.57,0.72,1.25,0.72,2.05c0,1.22-0.44,2.18-1.31,2.9
			c-0.87,0.71-2.06,1.07-3.57,1.07H47.98z M50.98,3.94V7.1h1.4c0.62,0,1.11-0.15,1.46-0.44c0.36-0.29,0.53-0.71,0.53-1.27
			c0-0.47-0.15-0.83-0.46-1.08c-0.31-0.25-0.77-0.38-1.39-0.38H50.98z M50.98,9.33v3.35h1.62c0.69,0,1.24-0.15,1.63-0.46
			c0.39-0.31,0.59-0.73,0.59-1.26c0-0.5-0.19-0.9-0.58-1.19c-0.39-0.29-0.93-0.44-1.62-0.44H50.98z"/>
		<path class="st0" d="M59.69,14.96V0.89h2.93v14.06H59.69z"/>
		<path class="st0" d="M73.44,11.04h-6.2c0.04,0.61,0.26,1.1,0.64,1.46c0.38,0.36,0.88,0.54,1.5,0.54c0.38,0,0.72-0.09,1.03-0.28
			c0.31-0.19,0.59-0.46,0.84-0.83l2.15,1.22c-0.54,0.71-1.15,1.22-1.83,1.54c-0.67,0.32-1.42,0.49-2.25,0.49
			c-1.57,0-2.8-0.43-3.67-1.28c-0.88-0.85-1.32-2.04-1.32-3.56c0-1.58,0.46-2.83,1.37-3.75c0.92-0.92,2.04-1.38,3.38-1.38
			c1.39,0,2.46,0.41,3.21,1.23c0.76,0.82,1.14,2.06,1.14,3.71V11.04z M70.72,9.19c0-0.65-0.14-1.14-0.41-1.46
			c-0.27-0.33-0.64-0.49-1.11-0.49c-0.56,0-1.01,0.19-1.35,0.56c-0.34,0.37-0.55,0.83-0.63,1.39H70.72z"/>
		<path class="st0" d="M84.41,14.96h-2.92V9.5c0-0.61-0.13-1.09-0.39-1.45c-0.26-0.36-0.65-0.54-1.16-0.54
			c-0.51,0-0.94,0.19-1.27,0.58c-0.33,0.38-0.5,0.87-0.5,1.46v5.42h-2.93v-9.5h2.93v1.21h0.04c0.31-0.43,0.74-0.78,1.29-1.04
			c0.55-0.26,1.1-0.39,1.66-0.39c1.07,0,1.88,0.33,2.43,1c0.55,0.67,0.83,1.61,0.83,2.83V14.96z"/>
		<path class="st0" d="M93.02,13.72c-0.34,0.49-0.76,0.85-1.26,1.1c-0.5,0.24-1.09,0.37-1.75,0.37c-1.21,0-2.18-0.42-2.92-1.26
			c-0.74-0.84-1.11-2.01-1.11-3.51c0-1.57,0.41-2.83,1.22-3.78c0.81-0.95,1.93-1.42,3.35-1.42c0.53,0,1.03,0.12,1.49,0.36
			c0.46,0.24,0.79,0.51,0.98,0.81h0.04v-5.5h2.93v14.06h-2.93v-1.23H93.02z M88.95,10.34c0,0.82,0.18,1.46,0.55,1.9
			s0.87,0.67,1.52,0.67c0.62,0,1.12-0.23,1.51-0.71c0.39-0.47,0.58-1.09,0.58-1.86V9.62c0-0.61-0.19-1.11-0.56-1.51
			c-0.37-0.4-0.86-0.6-1.46-0.6c-0.67,0-1.2,0.25-1.58,0.76C89.14,8.77,88.95,9.46,88.95,10.34z"/>
		<path class="st0" d="M106.8,11.04h-6.2c0.04,0.61,0.26,1.1,0.64,1.46c0.38,0.36,0.88,0.54,1.5,0.54c0.38,0,0.72-0.09,1.03-0.28
			c0.31-0.19,0.59-0.46,0.84-0.83l2.15,1.22c-0.54,0.71-1.15,1.22-1.83,1.54c-0.67,0.32-1.42,0.49-2.25,0.49
			c-1.57,0-2.8-0.43-3.67-1.28c-0.88-0.85-1.32-2.04-1.32-3.56c0-1.58,0.46-2.83,1.37-3.75c0.92-0.92,2.04-1.38,3.38-1.38
			c1.39,0,2.46,0.41,3.21,1.23c0.76,0.82,1.14,2.06,1.14,3.71V11.04z M104.09,9.19c0-0.65-0.14-1.14-0.41-1.46
			c-0.28-0.33-0.64-0.49-1.11-0.49c-0.56,0-1.01,0.19-1.35,0.56c-0.34,0.37-0.55,0.83-0.63,1.39H104.09z"/>
		<path class="st0" d="M114.68,8.02c-0.2-0.07-0.4-0.12-0.6-0.15c-0.2-0.03-0.39-0.05-0.58-0.05c-0.58,0-1.05,0.23-1.42,0.7
			c-0.37,0.47-0.55,1.1-0.55,1.91v4.54h-2.93v-9.5h2.93v1.69h0.04c0.23-0.62,0.55-1.08,0.97-1.39c0.42-0.31,0.92-0.46,1.51-0.46
			c0.23,0,0.45,0.02,0.65,0.05c0.21,0.03,0.41,0.09,0.62,0.17L114.68,8.02z"/>
		<path class="st0" d="M17.87,23.36h-1.11v-1.97h-2.03v1.97h-1.1v-4.9h1.1v1.96h2.03v-1.96h1.11V23.36z"/>
		<path class="st0" d="M20.5,23.44c-0.57,0-1.02-0.16-1.37-0.49c-0.35-0.33-0.52-0.77-0.52-1.33c0-0.56,0.18-1,0.52-1.34
			c0.35-0.34,0.82-0.51,1.41-0.51c0.59,0,1.04,0.17,1.38,0.51s0.5,0.76,0.5,1.28c0,0.56-0.18,1.01-0.54,1.36
			C21.52,23.27,21.06,23.44,20.5,23.44z M20.53,22.6c0.26,0,0.46-0.1,0.59-0.29c0.13-0.19,0.2-0.44,0.2-0.73s-0.07-0.53-0.2-0.71
			s-0.33-0.26-0.6-0.26c-0.26,0-0.46,0.09-0.6,0.28c-0.14,0.19-0.22,0.42-0.22,0.72s0.07,0.53,0.21,0.72
			C20.05,22.51,20.25,22.6,20.53,22.6z"/>
		<path class="st0" d="M28.61,23.36h-1.08v-2.02c0-0.24-0.05-0.42-0.14-0.54c-0.09-0.12-0.23-0.18-0.42-0.18
			c-0.18,0-0.32,0.07-0.43,0.22c-0.11,0.15-0.17,0.34-0.17,0.56v1.96h-1.08v-2.02c0-0.24-0.05-0.42-0.14-0.54s-0.23-0.18-0.41-0.18
			s-0.33,0.07-0.44,0.21c-0.11,0.14-0.17,0.34-0.17,0.58v1.94h-1.08v-3.5h1.08v0.44h0.01c0.11-0.15,0.27-0.28,0.47-0.38
			c0.2-0.1,0.41-0.15,0.62-0.15c0.25,0,0.47,0.05,0.64,0.15c0.17,0.1,0.3,0.23,0.38,0.4c0.15-0.18,0.33-0.32,0.54-0.41
			s0.43-0.14,0.68-0.14c0.34,0,0.61,0.12,0.83,0.36c0.21,0.24,0.32,0.59,0.32,1.05V23.36z"/>
		<path class="st0" d="M32.54,21.92h-2.28c0.02,0.23,0.09,0.41,0.23,0.54c0.14,0.13,0.32,0.2,0.55,0.2c0.14,0,0.27-0.03,0.38-0.1
			c0.11-0.07,0.22-0.17,0.31-0.31l0.79,0.45c-0.2,0.26-0.42,0.45-0.67,0.57c-0.25,0.12-0.52,0.18-0.83,0.18
			c-0.58,0-1.03-0.16-1.35-0.47c-0.32-0.31-0.49-0.75-0.49-1.31c0-0.58,0.17-1.04,0.51-1.38s0.75-0.51,1.24-0.51
			c0.51,0,0.91,0.15,1.18,0.45c0.28,0.3,0.42,0.76,0.42,1.37V21.92z M31.54,21.23c0-0.24-0.05-0.42-0.15-0.54
			c-0.1-0.12-0.24-0.18-0.41-0.18c-0.21,0-0.37,0.07-0.5,0.21c-0.13,0.14-0.2,0.31-0.23,0.51H31.54z"/>
		<path class="st0" d="M34.29,23.03h-0.01v0.32H33.2v-5.18h1.08v2.1h0.01c0.14-0.17,0.3-0.29,0.5-0.38
			c0.19-0.08,0.42-0.12,0.67-0.12c0.46,0,0.81,0.15,1.06,0.46s0.37,0.73,0.37,1.27c0,0.58-0.15,1.05-0.44,1.4
			c-0.29,0.35-0.68,0.53-1.16,0.53c-0.22,0-0.42-0.03-0.58-0.1C34.55,23.27,34.41,23.17,34.29,23.03z M34.26,21.47v0.36
			c0,0.22,0.07,0.4,0.21,0.55c0.14,0.14,0.31,0.22,0.53,0.22c0.25,0,0.44-0.09,0.58-0.28c0.14-0.19,0.21-0.45,0.21-0.8
			c0-0.28-0.06-0.51-0.19-0.67c-0.13-0.16-0.31-0.24-0.54-0.24c-0.23,0-0.41,0.08-0.57,0.24C34.34,21.01,34.26,21.22,34.26,21.47z"
			/>
		<path class="st0" d="M39.77,20.8c-0.08-0.02-0.15-0.04-0.22-0.06c-0.07-0.01-0.14-0.02-0.22-0.02c-0.21,0-0.39,0.09-0.52,0.26
			c-0.13,0.17-0.2,0.41-0.2,0.7v1.67h-1.08v-3.5h1.08v0.62h0.01c0.08-0.23,0.2-0.4,0.36-0.51s0.34-0.17,0.56-0.17
			c0.08,0,0.16,0.01,0.24,0.02c0.08,0.01,0.15,0.03,0.23,0.06L39.77,20.8z"/>
		<path class="st0" d="M43.58,21.92H41.3c0.02,0.23,0.09,0.41,0.23,0.54c0.14,0.13,0.32,0.2,0.55,0.2c0.14,0,0.27-0.03,0.38-0.1
			c0.11-0.07,0.22-0.17,0.31-0.31l0.79,0.45c-0.2,0.26-0.42,0.45-0.67,0.57c-0.25,0.12-0.52,0.18-0.83,0.18
			c-0.58,0-1.03-0.16-1.35-0.47c-0.32-0.31-0.49-0.75-0.49-1.31c0-0.58,0.17-1.04,0.51-1.38s0.75-0.51,1.24-0.51
			c0.51,0,0.91,0.15,1.18,0.45c0.28,0.3,0.42,0.76,0.42,1.37V21.92z M42.58,21.23c0-0.24-0.05-0.42-0.15-0.54
			c-0.1-0.12-0.24-0.18-0.41-0.18c-0.21,0-0.37,0.07-0.5,0.21c-0.13,0.14-0.2,0.31-0.23,0.51H42.58z"/>
		<path class="st0" d="M49.35,19.86l-1.01,3.5H47.2l-0.52-2c-0.01-0.05-0.03-0.1-0.04-0.15c-0.01-0.05-0.02-0.1-0.03-0.16h-0.02
			c-0.01,0.06-0.02,0.11-0.03,0.16c-0.01,0.05-0.02,0.09-0.04,0.14l-0.55,2.01h-1.12l-0.99-3.5h1.07l0.5,2.16
			c0.01,0.05,0.02,0.1,0.03,0.15c0.01,0.06,0.02,0.12,0.03,0.18h0.02c0.01-0.07,0.02-0.13,0.03-0.19c0.01-0.06,0.02-0.11,0.04-0.16
			l0.59-2.15h1.03l0.53,2.16c0,0.02,0.01,0.06,0.02,0.12c0.01,0.06,0.02,0.13,0.03,0.22h0.02c0.01-0.08,0.02-0.15,0.03-0.19
			c0.01-0.04,0.02-0.09,0.03-0.15l0.48-2.16H49.35z"/>
		<path class="st0" d="M55.55,23.36h-1.24l-0.73-1.33c-0.1-0.18-0.19-0.31-0.28-0.38c-0.09-0.08-0.2-0.11-0.33-0.11h-0.3v1.82h-1.1
			v-4.9h1.75c0.61,0,1.06,0.13,1.35,0.38c0.29,0.25,0.44,0.59,0.44,1.01c0,0.31-0.09,0.59-0.27,0.84c-0.18,0.25-0.44,0.43-0.77,0.52
			v0.01c0.13,0.05,0.24,0.13,0.35,0.25c0.11,0.12,0.22,0.28,0.35,0.49L55.55,23.36z M52.67,19.3v1.39h0.48
			c0.25,0,0.45-0.07,0.58-0.2c0.14-0.13,0.21-0.31,0.21-0.53c0-0.21-0.06-0.38-0.19-0.49s-0.32-0.17-0.58-0.17H52.67z"/>
		<path class="st0" d="M59.17,21.92h-2.28c0.02,0.23,0.09,0.41,0.23,0.54c0.14,0.13,0.32,0.2,0.55,0.2c0.14,0,0.27-0.03,0.38-0.1
			c0.11-0.07,0.22-0.17,0.31-0.31l0.79,0.45c-0.2,0.26-0.42,0.45-0.67,0.57c-0.25,0.12-0.52,0.18-0.83,0.18
			c-0.58,0-1.03-0.16-1.35-0.47c-0.32-0.31-0.49-0.75-0.49-1.31c0-0.58,0.17-1.04,0.51-1.38s0.75-0.51,1.24-0.51
			c0.51,0,0.91,0.15,1.18,0.45c0.28,0.3,0.42,0.76,0.42,1.37V21.92z M58.17,21.23c0-0.24-0.05-0.42-0.15-0.54
			c-0.1-0.12-0.24-0.18-0.41-0.18c-0.21,0-0.37,0.07-0.5,0.21c-0.13,0.14-0.2,0.31-0.23,0.51H58.17z"/>
		<path class="st0" d="M62.98,22.55c-0.16,0.29-0.37,0.52-0.64,0.67c-0.27,0.15-0.58,0.23-0.93,0.23c-0.56,0-1-0.16-1.31-0.48
			c-0.32-0.32-0.47-0.74-0.47-1.27c0-0.59,0.17-1.06,0.52-1.4s0.8-0.51,1.36-0.51c0.34,0,0.65,0.08,0.91,0.24
			c0.26,0.16,0.44,0.39,0.53,0.7l-0.88,0.32c-0.07-0.15-0.15-0.26-0.25-0.33c-0.1-0.07-0.22-0.1-0.36-0.1
			c-0.21,0-0.39,0.08-0.53,0.24c-0.14,0.16-0.21,0.42-0.21,0.76c0,0.33,0.07,0.57,0.2,0.72s0.31,0.23,0.51,0.23
			c0.16,0,0.29-0.03,0.4-0.1c0.11-0.07,0.21-0.18,0.3-0.32L62.98,22.55z"/>
		<path class="st0" d="M64.14,19.4c-0.19,0-0.34-0.06-0.46-0.17c-0.12-0.11-0.18-0.26-0.18-0.43c0-0.18,0.06-0.32,0.18-0.43
			s0.27-0.17,0.46-0.17c0.19,0,0.34,0.06,0.46,0.17c0.12,0.11,0.18,0.26,0.18,0.43s-0.06,0.32-0.18,0.43
			C64.49,19.34,64.33,19.4,64.14,19.4z M64.68,23.36H63.6v-3.5h1.08V23.36z"/>
		<path class="st0" d="M66.63,23.06h-0.01v1.91h-1.08v-5.11h1.08v0.45h0.01c0.13-0.18,0.3-0.31,0.5-0.4
			c0.2-0.09,0.41-0.14,0.66-0.14c0.46,0,0.81,0.15,1.07,0.45s0.38,0.73,0.38,1.28c0,0.58-0.15,1.05-0.44,1.4s-0.68,0.53-1.16,0.53
			c-0.21,0-0.4-0.03-0.57-0.1S66.74,23.19,66.63,23.06z M66.6,21.47v0.36c0,0.23,0.07,0.41,0.21,0.55s0.31,0.21,0.53,0.21
			c0.24,0,0.43-0.09,0.58-0.28c0.14-0.19,0.21-0.45,0.21-0.8c0-0.3-0.06-0.53-0.19-0.68c-0.13-0.15-0.31-0.23-0.54-0.23
			c-0.23,0-0.41,0.08-0.57,0.24C66.68,21.01,66.6,21.21,66.6,21.47z"/>
		<path class="st0" d="M73.01,21.92h-2.28c0.02,0.23,0.09,0.41,0.23,0.54c0.14,0.13,0.32,0.2,0.55,0.2c0.14,0,0.27-0.03,0.38-0.1
			c0.11-0.07,0.22-0.17,0.31-0.31L73,22.69c-0.2,0.26-0.42,0.45-0.67,0.57c-0.25,0.12-0.52,0.18-0.83,0.18
			c-0.58,0-1.03-0.16-1.35-0.47c-0.32-0.31-0.49-0.75-0.49-1.31c0-0.58,0.17-1.04,0.51-1.38s0.75-0.51,1.24-0.51
			c0.51,0,0.91,0.15,1.18,0.45c0.28,0.3,0.42,0.76,0.42,1.37V21.92z M72.01,21.23c0-0.24-0.05-0.42-0.15-0.54
			c-0.1-0.12-0.24-0.18-0.41-0.18c-0.21,0-0.37,0.07-0.5,0.21c-0.13,0.14-0.2,0.31-0.23,0.51H72.01z"/>
		<path class="st0" d="M79.44,22.87c-0.23,0.17-0.51,0.31-0.81,0.42c-0.31,0.11-0.62,0.16-0.93,0.16c-0.81,0-1.45-0.22-1.9-0.65
			c-0.46-0.44-0.69-1.04-0.69-1.8c0-0.77,0.23-1.4,0.69-1.88s1.04-0.73,1.74-0.73c0.49,0,0.9,0.09,1.22,0.28s0.56,0.43,0.72,0.74
			l-0.89,0.44c-0.11-0.19-0.25-0.32-0.42-0.41s-0.35-0.12-0.55-0.12c-0.39,0-0.71,0.14-0.96,0.42c-0.25,0.28-0.38,0.67-0.38,1.18
			c0,0.52,0.13,0.91,0.38,1.19c0.25,0.27,0.58,0.41,0.99,0.41c0.12,0,0.24-0.01,0.36-0.04c0.12-0.03,0.23-0.07,0.32-0.13v-0.8h-0.98
			v-0.92h2.08V22.87z"/>
		<path class="st0" d="M83.41,21.92h-2.28c0.02,0.23,0.09,0.41,0.23,0.54c0.14,0.13,0.32,0.2,0.55,0.2c0.14,0,0.27-0.03,0.38-0.1
			c0.11-0.07,0.22-0.17,0.31-0.31l0.79,0.45c-0.2,0.26-0.42,0.45-0.67,0.57c-0.25,0.12-0.52,0.18-0.83,0.18
			c-0.58,0-1.03-0.16-1.35-0.47c-0.32-0.31-0.49-0.75-0.49-1.31c0-0.58,0.17-1.04,0.51-1.38s0.75-0.51,1.24-0.51
			c0.51,0,0.91,0.15,1.18,0.45c0.28,0.3,0.42,0.76,0.42,1.37V21.92z M82.41,21.23c0-0.24-0.05-0.42-0.15-0.54
			c-0.1-0.12-0.24-0.18-0.41-0.18c-0.21,0-0.37,0.07-0.5,0.21c-0.13,0.14-0.2,0.31-0.23,0.51H82.41z"/>
		<path class="st0" d="M87.45,23.36h-1.08v-2.01c0-0.22-0.05-0.4-0.14-0.54c-0.1-0.13-0.24-0.2-0.43-0.2s-0.35,0.07-0.47,0.21
			s-0.18,0.32-0.18,0.54v2h-1.08v-3.5h1.08v0.44h0.01c0.11-0.16,0.27-0.29,0.48-0.38c0.2-0.1,0.41-0.15,0.61-0.15
			c0.39,0,0.69,0.12,0.9,0.37s0.3,0.59,0.3,1.04V23.36z"/>
		<path class="st0" d="M91.38,21.92h-2.28c0.02,0.23,0.09,0.41,0.23,0.54c0.14,0.13,0.32,0.2,0.55,0.2c0.14,0,0.27-0.03,0.38-0.1
			s0.22-0.17,0.31-0.31l0.79,0.45c-0.2,0.26-0.42,0.45-0.67,0.57c-0.25,0.12-0.52,0.18-0.83,0.18c-0.58,0-1.03-0.16-1.35-0.47
			c-0.32-0.31-0.49-0.75-0.49-1.31c0-0.58,0.17-1.04,0.51-1.38s0.75-0.51,1.24-0.51c0.51,0,0.91,0.15,1.18,0.45s0.42,0.76,0.42,1.37
			V21.92z M90.38,21.23c0-0.24-0.05-0.42-0.15-0.54c-0.1-0.12-0.24-0.18-0.41-0.18c-0.21,0-0.37,0.07-0.5,0.21
			c-0.13,0.14-0.2,0.31-0.23,0.51H90.38z"/>
		<path class="st0" d="M94.28,20.8c-0.07-0.02-0.15-0.04-0.22-0.06c-0.07-0.01-0.14-0.02-0.22-0.02c-0.21,0-0.39,0.09-0.52,0.26
			c-0.13,0.17-0.2,0.41-0.2,0.7v1.67h-1.08v-3.5h1.08v0.62h0.01c0.08-0.23,0.2-0.4,0.36-0.51s0.34-0.17,0.56-0.17
			c0.08,0,0.17,0.01,0.24,0.02c0.08,0.01,0.15,0.03,0.23,0.06L94.28,20.8z"/>
		<path class="st0" d="M97.86,23.36h-1.02v-0.39h-0.01c-0.13,0.16-0.28,0.28-0.46,0.36c-0.17,0.08-0.37,0.12-0.59,0.12
			c-0.3,0-0.55-0.09-0.77-0.27c-0.22-0.18-0.33-0.44-0.33-0.76c0-0.31,0.1-0.57,0.31-0.78c0.21-0.21,0.51-0.34,0.92-0.38l0.93-0.1
			v-0.11c0-0.17-0.05-0.3-0.16-0.39s-0.24-0.13-0.41-0.13s-0.3,0.04-0.43,0.11s-0.23,0.19-0.33,0.33l-0.72-0.43
			c0.12-0.2,0.33-0.38,0.6-0.54c0.28-0.16,0.6-0.23,0.98-0.23c0.48,0,0.85,0.12,1.11,0.37s0.38,0.62,0.38,1.12V23.36z M96.85,21.94
			V21.8l-0.7,0.07c-0.16,0.02-0.28,0.06-0.35,0.14c-0.07,0.07-0.11,0.17-0.11,0.29c0,0.11,0.04,0.2,0.12,0.27
			c0.08,0.07,0.19,0.11,0.31,0.11c0.21,0,0.39-0.07,0.52-0.21C96.78,22.33,96.85,22.15,96.85,21.94z"/>
		<path class="st0" d="M100.99,23.11c-0.11,0.1-0.24,0.18-0.4,0.24c-0.16,0.06-0.33,0.09-0.51,0.09c-0.4,0-0.7-0.09-0.89-0.28
			s-0.29-0.46-0.29-0.83v-1.69h-0.57v-0.8h0.57v-0.89l1.08-0.19v1.08h0.84v0.8h-0.84v1.68c0,0.11,0.02,0.19,0.07,0.24
			s0.11,0.08,0.2,0.08c0.05,0,0.1-0.01,0.15-0.03c0.05-0.02,0.11-0.05,0.16-0.1L100.99,23.11z"/>
		<path class="st0" d="M103.21,23.44c-0.57,0-1.02-0.16-1.37-0.49s-0.52-0.77-0.52-1.33c0-0.56,0.18-1,0.52-1.34
			c0.35-0.34,0.82-0.51,1.41-0.51c0.58,0,1.04,0.17,1.38,0.51s0.5,0.76,0.5,1.28c0,0.56-0.18,1.01-0.54,1.36
			C104.24,23.27,103.78,23.44,103.21,23.44z M103.25,22.6c0.26,0,0.46-0.1,0.59-0.29s0.2-0.44,0.2-0.73s-0.07-0.53-0.2-0.71
			s-0.33-0.26-0.6-0.26c-0.26,0-0.46,0.09-0.6,0.28c-0.14,0.19-0.22,0.42-0.22,0.72s0.07,0.53,0.21,0.72
			C102.77,22.51,102.97,22.6,103.25,22.6z"/>
		<path class="st0" d="M108.01,20.8c-0.07-0.02-0.15-0.04-0.22-0.06c-0.07-0.01-0.14-0.02-0.22-0.02c-0.21,0-0.39,0.09-0.52,0.26
			c-0.13,0.17-0.2,0.41-0.2,0.7v1.67h-1.08v-3.5h1.08v0.62h0.01c0.08-0.23,0.2-0.4,0.36-0.51s0.34-0.17,0.56-0.17
			c0.08,0,0.17,0.01,0.24,0.02c0.08,0.01,0.15,0.03,0.23,0.06L108.01,20.8z"/>
	</g>
</g>
</svg>
